<svg xmlns="http://www.w3.org/2000/svg" viewBox="0 0 181.42 181.42"><title>171109_seedtribe-branding</title><g id="Layer_1" data-name="Layer 1"><path d="M47.83,181.36h85.9a47.67,47.67,0,0,0,47.68-47.68V47.78A47.67,47.67,0,0,0,133.72.09H47.83A47.67,47.67,0,0,0,.14,47.78v85.9A47.67,47.67,0,0,0,47.83,181.36Z" style="fill:#4353ff"/></g><g id="Layer_2" data-name="Layer 2"><path d="M99,131.42,86.08,64.36,62.3,51.87S57.11,130.43,99,131.42Z" style="fill:none;stroke:#fff;stroke-linecap:round;stroke-linejoin:round;stroke-width:7px"/><path d="M122.9,83.16q.36,1.8.68,3.69s6.84,35.6-24.41,44.74l-13-67.68L80.68,35.35s19.14-.53,32.45,21.33" style="fill:none;stroke:#fff;stroke-linecap:round;stroke-linejoin:round;stroke-width:7px"/><line x1="93.69" y1="138.16" x2="106.62" y2="135.68" style="fill:none;stroke:#fff;stroke-linecap:round;stroke-linejoin:round;stroke-width:7px"/><line x1="99.17" y1="131.59" x2="102.27" y2="147.72" style="fill:none;stroke:#fff;stroke-linecap:round;stroke-linejoin:round;stroke-width:7px"/><line x1="90.17" y1="83.85" x2="112.58" y2="57.4" style="fill:none;stroke:#fff;stroke-linecap:round;stroke-linejoin:round;stroke-width:7px"/><line x1="93.91" y1="98.03" x2="117.16" y2="70.65" style="fill:none;stroke:#fff;stroke-linecap:round;stroke-linejoin:round;stroke-width:7px"/><line x1="96.34" y1="113.98" x2="122.36" y2="83.14" style="fill:none;stroke:#fff;stroke-linecap:round;stroke-linejoin:round;stroke-width:7px"/></g></svg>